<svg xmlns="http://www.w3.org/2000/svg" viewBox="0 0 484.8 484.8"><g fill="#F7910B"><path d="M484.8 286.4c0 104-95.2 188-242.4 188S0 390.4 0 286.4s95.2-260 242.4-260 242.4 156 242.4 260z"/><path d="M484.8 286.4c0 104-95.2 156-242.4 156S0 390.4 0 286.4s95.2-276 242.4-276 242.4 172 242.4 276z"/></g><g fill="#F9A908"><path d="M242.4 10.4c147.2 0 242.4 172 242.4 276s-95.2 156-242.4 156"/><path d="M484.8 286.4c0 104-95.2 156-242.4 156S0 390.4 0 286.4s95.2-260 242.4-260 242.4 156 242.4 260z"/></g><path d="M0 286.4c0-104 95.2-260 242.4-260" fill="#F9C55D"/><path d="M242.4 26.4c147.2 0 242.4 156 242.4 260s-95.2 188-242.4 188" fill="#F7910B"/><path d="M242.4 26.4c147.2 0 242.4 156 242.4 260" fill="#EA7103"/><path d="M193.6 105.6c2.4 6.4-9.6 7.2-23.2 12.8-13.6 4.8-23.2 12.8-25.6 6.4-2.4-6.4 6.4-16 20-20.8 12.8-5.6 25.6-4.8 28.8 1.6z" fill="#19BCA4"/><path d="M193.6 105.6c2.4 6.4-9.6 7.2-23.2 12.8-13.6 4.8-23.2 12.8-25.6 6.4" fill="#109DA0"/><path d="M291.2 105.6c-2.4 6.4 9.6 7.2 23.2 12.8 13.6 4.8 23.2 12.8 25.6 6.4 2.4-6.4-6.4-16-20-20.8-12.8-5.6-25.6-4.8-28.8 1.6z" fill="#19BCA4"/><path d="M291.2 105.6c-2.4 6.4 9.6 7.2 23.2 12.8 13.6 4.8 23.2 12.8 25.6 6.4" fill="#109DA0"/><path d="M208.8 232.8c0 9.6-28 5.6-62.4 5.6S84 243.2 84 232.8c0-9.6 28-17.6 62.4-17.6s62.4 8 62.4 17.6z" fill="#F9C55D"/><path d="M400.8 232.8c0 9.6-28 5.6-62.4 5.6s-62.4 4.8-62.4-5.6c0-9.6 28-17.6 62.4-17.6s62.4 8 62.4 17.6z" fill="#F9A908"/><path d="M284.8 247.2c0 8.8-19.2 16.8-42.4 16.8s-42.4-7.2-42.4-16.8" fill="#F9C55D"/><g fill="#F7910B"><circle cx="68.8" cy="262.4" r="4.8"/><circle cx="32.8" cy="278.4" r="8.8"/><circle cx="56.8" cy="246.4" r="1.6"/><circle cx="93.6" cy="260.8" r="1.6"/></g><g fill="#F9A908"><circle cx="407.2" cy="264.8" r="6.4"/><circle cx="427.2" cy="276" r="1.6"/><circle cx="384.8" cy="205.6" r="2.4"/><circle cx="380.8" cy="298.4" r="10.4"/><circle cx="438.4" cy="299.2" r="4.8"/></g><g fill="#F7910B"><circle cx="60.8" cy="294.4" r="4"/><circle cx="67.2" cy="227.2" r="3.2"/></g><g fill="#F9A908"><circle cx="24.8" cy="116.8" r="8.8"/><circle cx="50.4" cy="88.8" r="4.8"/><circle cx="460" cy="136" r="1.6"/><circle cx="453.6" cy="112.8" r="6.4"/><circle cx="474.4" cy="116.8" r="4"/><circle cx="34.4" cy="140.8" r="4.8"/></g><path d="M177.6 210.4c-3.2-.8-6.4-2.4-8.8-5.6-8.8-12.8-27.2-16-40-7.2-6.4 4-14.4 2.4-18.4-3.2S108 180 113.6 176c24.8-17.6 59.2-11.2 76.8 14.4 4 5.6 2.4 14.4-3.2 18.4-3.2 1.6-6.4 1.6-9.6 1.6z" fill="#1E4784"/><path d="M190.4 189.6c4 5.6 2.4 14.4-3.2 18.4-3.2 2.4-6.4 2.4-9.6 2.4-3.2-.8-6.4-2.4-8.8-5.6-8.8-12.8-27.2-16-40-7.2-6.4 4-14.4 2.4-18.4-3.2S108 180 113.6 176" fill="#02243E"/><path d="M307.2 210.4c3.2-.8 6.4-2.4 8.8-5.6 8.8-12.8 27.2-16 40-7.2 6.4 4 14.4 2.4 18.4-3.2 4-5.6 2.4-14.4-3.2-18.4-24.8-17.6-59.2-11.2-76.8 14.4-4 5.6-2.4 14.4 3.2 18.4 3.2 1.6 6.4 1.6 9.6 1.6z" fill="#1E4784"/><path d="M294.4 189.6c-4 5.6-2.4 14.4 3.2 18.4 3.2 2.4 6.4 2.4 9.6 2.4 3.2-.8 6.4-2.4 8.8-5.6 8.8-12.8 27.2-16 40-7.2 6.4 4 14.4 2.4 18.4-3.2 4-5.6 2.4-14.4-3.2-18.4" fill="#02243E"/><path d="M300 369.6c0 20.8-26.4 37.6-59.2 37.6s-59.2-16.8-59.2-37.6" fill="#F7910B"/><path d="M360.8 255.2c0 72.8-52.8 132-118.4 132S124 328 124 255.2" fill="#C42260"/><path d="M360.8 255.2c0 24.8-52.8 44.8-118.4 44.8S124 280 124 255.2" fill="#99144A"/><path d="M242.4 387.2c36.8 0 68.8-18.4 90.4-47.2-13.6-16.8-32.8-27.2-54.4-27.2-12.8 0-25.6 4-36 10.4-10.4-7.2-23.2-10.4-36-10.4-21.6 0-40.8 10.4-54.4 27.2 21.6 28.8 53.6 47.2 90.4 47.2z" fill="#E2446E"/></svg>