<svg xmlns="http://www.w3.org/2000/svg" viewBox="0 0 484.8 484.8"><g fill="#F7910B"><path d="M484.8 286.4c0 104-95.2 188-242.4 188S0 390.4 0 286.4s95.2-260 242.4-260 242.4 156 242.4 260z"/><path d="M484.8 286.4c0 104-95.2 156-242.4 156S0 390.4 0 286.4s95.2-276 242.4-276 242.4 172 242.4 276z"/></g><g fill="#F9A908"><path d="M242.4 10.4c147.2 0 242.4 172 242.4 276s-95.2 156-242.4 156"/><path d="M484.8 286.4c0 104-95.2 156-242.4 156S0 390.4 0 286.4s95.2-260 242.4-260 242.4 156 242.4 260z"/></g><path d="M0 286.4c0-104 95.2-260 242.4-260" fill="#F9C55D"/><path d="M242.4 26.4c147.2 0 242.4 156 242.4 260s-95.2 188-242.4 188" fill="#F7910B"/><g fill="#EA7103"><path d="M242.4 26.4c147.2 0 242.4 156 242.4 260"/><circle cx="159.2" cy="192" r="25.6"/><circle cx="325.6" cy="192" r="25.6"/></g><circle cx="159.2" cy="184.8" r="25.6" fill="#1E4784"/><path d="M159.2 159.2c14.4 0 25.6 11.2 25.6 25.6s-11.2 25.6-25.6 25.6" fill="#00233F"/><circle cx="325.6" cy="184.8" r="25.6" fill="#1E4784"/><path d="M325.6 159.2c14.4 0 25.6 11.2 25.6 25.6s-11.2 25.6-25.6 25.6" fill="#00233F"/><path d="M208.8 232.8c0 9.6-28 5.6-62.4 5.6S84 243.2 84 232.8c0-9.6 28-17.6 62.4-17.6s62.4 8 62.4 17.6z" fill="#F9C55D"/><path d="M400.8 232.8c0 9.6-28 5.6-62.4 5.6s-62.4 4.8-62.4-5.6c0-9.6 28-17.6 62.4-17.6s62.4 8 62.4 17.6z" fill="#F9A908"/><g fill="#F7910B"><circle cx="68.8" cy="262.4" r="4.8"/><circle cx="32.8" cy="278.4" r="8.8"/><circle cx="56.8" cy="246.4" r="1.6"/><circle cx="93.6" cy="260.8" r="1.6"/></g><g fill="#F9A908"><circle cx="407.2" cy="264.8" r="6.4"/><circle cx="427.2" cy="276" r="1.6"/><circle cx="384.8" cy="205.6" r="2.4"/><circle cx="380.8" cy="298.4" r="10.4"/><circle cx="438.4" cy="299.2" r="4.8"/></g><g fill="#F7910B"><circle cx="60.8" cy="294.4" r="4"/><circle cx="67.2" cy="227.2" r="3.2"/></g><g fill="#F9A908"><circle cx="24.8" cy="116.8" r="8.8"/><circle cx="50.4" cy="88.8" r="4.8"/><circle cx="460" cy="136" r="1.6"/><circle cx="453.6" cy="112.8" r="6.4"/><path d="M478.4 116.8c0 2.4-1.6 4-4 4s-4-1.6-4-4 1.6-4 4-4c1.6 0 4 2.4 4 4z"/><circle cx="34.4" cy="140.8" r="4.8"/></g><g fill="#F7910B"><path d="M301.6 305.6c0 20.8-26.4 37.6-59.2 37.6s-59.2-16.8-59.2-37.6M188.8 203.2c0 7.2-16.8 21.6-38.4 21.6S112 210.4 112 203.2c0-7.2 16.8-3.2 38.4-3.2s38.4-4 38.4 3.2z"/></g><path d="M188.8 201.6c0 7.2-16.8 12.8-38.4 12.8s-38.4-5.6-38.4-12.8 16.8-3.2 38.4-3.2 38.4-4 38.4 3.2z" fill="#CBEBEF"/><path d="M151.2 198.4c20.8 0 38.4-4 38.4 3.2s-16.8 12.8-38.4 12.8" fill="#89D3DB"/><circle cx="81.6" cy="238.4" r="20" fill="#F7910B"/><circle cx="81.6" cy="231.2" r="20" fill="#CBEBEF"/><path d="M68 217.6c8-8 20-8 28 0s8 20 0 28" fill="#89D3DB"/><circle cx="81.6" cy="294.4" r="20" fill="#F7910B"/><circle cx="81.6" cy="287.2" r="20" fill="#CBEBEF"/><path d="M68 272.8c8-8 20-8 28 0s8 20 0 28" fill="#89D3DB"/><circle cx="96" cy="198.4" r="9.6" fill="#F7910B"/><circle cx="96" cy="194.4" r="9.6" fill="#CBEBEF"/><path d="M89.6 188c4-4 10.4-4 14.4 0s4 10.4 0 14.4" fill="#89D3DB"/><circle cx="96" cy="335.2" r="9.6" fill="#F7910B"/><circle cx="96" cy="331.2" r="9.6" fill="#CBEBEF"/><path d="M88.8 324c4-4 10.4-4 14.4 0s4 10.4 0 14.4" fill="#89D3DB"/><circle cx="115.2" cy="359.2" r="7.2" fill="#F7910B"/><circle cx="115.2" cy="356.8" r="7.2" fill="#CBEBEF"/><path d="M110.4 352c2.4-2.4 7.2-2.4 10.4 0 2.4 2.4 2.4 7.2 0 9.6" fill="#89D3DB"/><path d="M296 203.2c0 7.2 16.8 21.6 38.4 21.6 20.8 0 38.4-14.4 38.4-21.6 0-7.2-16.8-3.2-38.4-3.2-21.6-.8-38.4-4-38.4 3.2z" fill="#F7910B"/><path d="M296 201.6c0 7.2 16.8 12.8 38.4 12.8 20.8 0 38.4-5.6 38.4-12.8s-16.8-3.2-38.4-3.2-38.4-4-38.4 3.2z" fill="#89D3DB"/><path d="M333.6 198.4c-20.8 0-38.4-4-38.4 3.2s16.8 12.8 38.4 12.8" fill="#CBEBEF"/><circle cx="403.2" cy="238.4" r="20" fill="#F7910B"/><circle cx="403.2" cy="231.2" r="20" fill="#89D3DB"/><path d="M416.8 217.6c-8-8-20-8-28 0s-8 20 0 28" fill="#CBEBEF"/><circle cx="403.2" cy="294.4" r="20" fill="#F7910B"/><circle cx="403.2" cy="287.2" r="20" fill="#89D3DB"/><path d="M416.8 272.8c-8-8-20-8-28 0s-8 20 0 28" fill="#CBEBEF"/><circle cx="388.8" cy="198.4" r="9.6" fill="#F7910B"/><circle cx="388.8" cy="194.4" r="9.6" fill="#89D3DB"/><path d="M395.2 188c-4-4-10.4-4-14.4 0s-4 10.4 0 14.4" fill="#CBEBEF"/><circle cx="388.8" cy="335.2" r="9.6" fill="#F7910B"/><circle cx="388.8" cy="331.2" r="9.6" fill="#89D3DB"/><path d="M396 324c-4-4-10.4-4-14.4 0s-4 10.4 0 14.4" fill="#CBEBEF"/><circle cx="369.6" cy="359.2" r="7.2" fill="#F7910B"/><circle cx="369.6" cy="356.8" r="7.2" fill="#89D3DB"/><path d="M374.4 352c-2.4-2.4-7.2-2.4-9.6 0s-2.4 7.2 0 9.6" fill="#CBEBEF"/><g fill="#19BCA4"><path d="M152 148.8c-2.4-3.2 6.4-6.4 16-12.8s16-12.8 17.6-9.6c2.4 3.2-4 11.2-12.8 16.8-8.8 6.4-18.4 8.8-20.8 5.6zM332.8 148.8c2.4-3.2-6.4-6.4-16-12.8s-16-12.8-17.6-9.6c-2.4 3.2 4 11.2 12.8 16.8 8.8 6.4 18.4 8.8 20.8 5.6z"/></g><path d="M179.2 280c35.2-35.2 91.2-35.2 126.4 0" fill="#F7910B"/><g fill="#02243E"><path d="M302.4 299.2c-4.8 0-8.8-4-8.8-8.8 0-16.8 13.6-30.4 30.4-30.4 4.8 0 8.8 4 8.8 8.8s-4 8.8-8.8 8.8c-7.2 0-12.8 5.6-12.8 12.8 0 4.8-4 8.8-8.8 8.8zM182.4 299.2c-4.8 0-8.8-4-8.8-8.8 0-7.2-5.6-12.8-12.8-12.8-4.8 0-8.8-4-8.8-8.8s4-8.8 8.8-8.8c16.8 0 30.4 13.6 30.4 30.4 0 4.8-4 8.8-8.8 8.8z"/><path d="M305.6 283.2c-2.4 0-4.8-.8-6.4-2.4-15.2-15.2-35.2-23.2-56.8-23.2-21.6 0-41.6 8-56.8 23.2-3.2 3.2-8.8 3.2-12.8 0s-3.2-8.8 0-12.8c18.4-18.4 43.2-28.8 69.6-28.8s51.2 10.4 69.6 28.8c3.2 3.2 3.2 8.8 0 12.8-1.6 1.6-4 2.4-6.4 2.4z"/></g></svg>