<svg xmlns="http://www.w3.org/2000/svg" viewBox="0 0 501.6 501.6"><path d="M498.8 412c0 83.2-111.2 89.6-248 89.6S2.8 496 2.8 412c0-83.2 111.2-151.2 248-151.2s248 67.2 248 151.2z" fill="#DBD2D5"/><path d="M250.8 260.8c126.4 0 230.4 57.6 245.6 131.2 1.6-5.6 2.4-11.2 2.4-18.4 0-83.2-111.2-244.8-248-244.8S2.8 290.4 2.8 373.6c0 6.4.8 12.8 2.4 18.4 15.2-74.4 119.2-131.2 245.6-131.2z" fill="#E53871"/><path d="M250.8 260.8c126.4 0 230.4 57.6 245.6 131.2 1.6-5.6 2.4-11.2 2.4-18.4 0-83.2-111.2-208-248-208s-248 124-248 208c0 6.4.8 12.8 2.4 18.4 15.2-74.4 119.2-131.2 245.6-131.2z" fill="#D32054"/><path d="M250.8 260.8c126.4 0 230.4 57.6 245.6 131.2 1.6-5.6 2.4-11.2 2.4-18.4 0-83.2-111.2-150.4-248-150.4s-248 67.2-248 150.4c0 6.4.8 12.8 2.4 18.4 15.2-74.4 119.2-131.2 245.6-131.2z" fill="#B51248"/><path d="M498.8 412c0 83.2-111.2 70.4-248 70.4S2.8 495.2 2.8 412c0-84 111.2-113.6 248-113.6s248 29.6 248 113.6z" fill="#FFF"/><g fill="#FF7C76"><path d="M231.6 129.6v131.2c6.4 0 12.8-.8 19.2-.8 5.6 0 11.2 0 16 .8V129.6c-5.6-.8-10.4-.8-16-.8-6.4 0-12.8.8-19.2.8zM139.6 276.8c11.2-3.2 23.2-6.4 35.2-8.8L154 155.2c-11.2 6.4-22.4 13.6-32.8 21.6l18.4 100zM62 313.6c9.6-7.2 20.8-13.6 32.8-19.2l-35.2-55.2c-8.8 11.2-16.8 23.2-23.2 34.4l25.6 40zM324.4 267.2c12 2.4 24 4.8 35.2 8L378 174.4c-10.4-8-21.6-15.2-32.8-20.8l-20.8 113.6zM437.2 312l26.4-41.6c-7.2-11.2-14.4-23.2-23.2-34.4l-36 56c12 7.2 23.2 13.6 32.8 20z"/></g><g fill="#DBD2D5"><path d="M76.4 381.6c0 7.2-4.8 12.8-10.4 12.8s-10.4-5.6-10.4-12.8c0-7.2 4.8-12.8 10.4-12.8 5.6 0 10.4 5.6 10.4 12.8zM261.2 453.6c0 7.2-4.8 12.8-10.4 12.8-5.6 0-10.4-5.6-10.4-12.8 0-7.2 4.8-12.8 10.4-12.8 5.6 0 10.4 5.6 10.4 12.8z"/><ellipse cx="404.4" cy="450.4" rx="10.4" ry="12.8"/><ellipse cx="431.6" cy="423.2" rx="10.4" ry="12.8"/><path d="M372.4 438.4c0 4.8-3.2 8-7.2 8s-7.2-4-7.2-8 3.2-8 7.2-8 7.2 3.2 7.2 8zM116.4 429.6c0 4.8-3.2 8-7.2 8s-7.2-4-7.2-8c0-4.8 3.2-8 7.2-8s7.2 3.2 7.2 8zM56.4 426.4c0 4.8-3.2 8-7.2 8-3.2 0-6.4-3.2-6.4-8s3.2-8 7.2-8c3.2 0 6.4 3.2 6.4 8zM452.4 362.4c0 4.8-3.2 8-7.2 8s-7.2-4-7.2-8c0-4.8 3.2-8 7.2-8s7.2 3.2 7.2 8z"/><ellipse cx="119.6" cy="364" rx="7.2" ry="8"/><path d="M177.2 453.6c0 7.2-4.8 12.8-10.4 12.8-5.6 0-10.4-5.6-10.4-12.8 0-7.2 4.8-12.8 10.4-12.8 5.6 0 10.4 5.6 10.4 12.8z"/></g><ellipse cx="250" cy="145.6" rx="23.2" ry="5.6" fill="#B51212"/><path d="M256.4 140.8c0 4-2.4 4-5.6 4-3.2 0-5.6 0-5.6-4V7.2c0-4 2.4-7.2 5.6-7.2 3.2 0 5.6 3.2 5.6 7.2v133.6z"/><path fill="#494949" d="M252.4 8.8h108v68h-108z"/><path d="M252.4 8.8h108v68"/><circle cx="306" cy="43.2" r="21.6" fill="#D32E26"/><g fill="#DBD2D5"><circle cx="167.6" cy="328.8" r="25.6"/><circle cx="334" cy="328.8" r="25.6"/></g><circle cx="167.6" cy="321.6" r="25.6" fill="#1E4784"/><path d="M167.6 296c14.4 0 25.6 11.2 25.6 25.6s-11.2 25.6-25.6 25.6" fill="#00233F"/><circle cx="334" cy="321.6" r="25.6" fill="#1E4784"/><path d="M334 296c14.4 0 25.6 11.2 25.6 25.6s-11.2 25.6-25.6 25.6" fill="#00233F"/><g fill="#FFF"><path d="M200.4 220c0 7.2-11.2 4-26.4 4.8s-26.4 4.8-26.4-2.4 11.2-12.8 25.6-13.6c15.2-.8 27.2 4.8 27.2 11.2zM301.2 220c0 7.2 11.2 4 26.4 4.8s26.4 4.8 26.4-2.4-11.2-12.8-25.6-13.6c-15.2-.8-27.2 4.8-27.2 11.2z"/></g><g fill="#DBD2D5"><path d="M200.4 220c0 7.2-11.2 4-26.4 4.8s-26.4 4.8-26.4-2.4M301.2 220c0 7.2 11.2 4 26.4 4.8s26.4 4.8 26.4-2.4"/></g><g fill="#EAE5E7"><path d="M217.2 370.4c0 9.6-28 5.6-62.4 5.6s-62.4 4.8-62.4-5.6 28-17.6 62.4-17.6 62.4 8 62.4 17.6zM409.2 370.4c0 9.6-28 5.6-62.4 5.6s-62.4 4.8-62.4-5.6 28-17.6 62.4-17.6 62.4 8 62.4 17.6z"/></g><path d="M292.4 368.8c0 15.2-18.4 28-41.6 28s-42.4-12.8-42.4-28 19.2-3.2 42.4-3.2 41.6-12 41.6 3.2z" fill="#99144A"/></svg>